# xmcd
#
# Track frame offsets: 
#        150
#        18867
#        33754
#        53756
#        73376
#        101868
#        122406
#        145321
#        164574
#        189278
#        212491
#        243986
#        266881
#        295897
#
# Disc length: 4401 seconds
#
# Revision: 3
# Processed by: cddbd v1.5.2PL0 Copyright (c) Steve Scherf et al.
# Submitted via: ExactAudioCopy v1.3
#
DISCID=cd112f0e
DTITLE=The Duffy Bishop Band - Fly The Rocket
DYEAR=1999
DGENRE=Blues
TTITLE0=Change Your Address
TTITLE1=Rockandaheartbreak
TTITLE2=Wild Women
TTITLE3=One Day
TTITLE4=It's a Crime
TTITLE5=Better Half of What
TTITLE6=Just a Whisper
TTITLE7=Hey Linda
TTITLE8=Pain
TTITLE9=Patience
TTITLE10=3X's
TTITLE11=Each Day
TTITLE12=Fly the Rocket
TTITLE13=Blue Lullaby
EXTD=
EXTT0=
EXTT1=
EXTT2=
EXTT3=
EXTT4=
EXTT5=
EXTT6=
EXTT7=
EXTT8=
EXTT9=
EXTT10=
EXTT11=
EXTT12=
EXTT13=
PLAYORDER=
